<?xml version="1.0" encoding="UTF-8"?>
<svg version="1.1" xmlns="http://www.w3.org/2000/svg" width="20" height="20">
<path d="M0 0 C0.99 0 1.98 0 3 0 C5.1640625 1.05859375 5.1640625 1.05859375 7 3 C7.4609375 6.28515625 7.4609375 6.28515625 7.375 10.0625 C7.35566406 11.93615234 7.35566406 11.93615234 7.3359375 13.84765625 C7 17 7 17 5 19 C1.8125 19.265625 1.8125 19.265625 -2 19.25 C-3.258125 19.25515625 -4.51625 19.2603125 -5.8125 19.265625 C-9 19 -9 19 -11 17 C-11.23046875 13.8125 -11.23046875 13.8125 -11.1875 10 C-11.18105469 8.741875 -11.17460937 7.48375 -11.16796875 6.1875 C-11 3 -11 3 -10 1 C-6.48999696 -1.47000214 -4.06077821 -0.86399536 0 0 Z M-8 4 C-8 4.66 -8 5.32 -8 6 C-4.04 6 -0.08 6 4 6 C3.67 5.34 3.34 4.68 3 4 C-0.63 4 -4.26 4 -8 4 Z M-8 9 C-8 11.31 -8 13.62 -8 16 C-4.04 16 -0.08 16 4 16 C4 13.69 4 11.38 4 9 C0.04 9 -3.92 9 -8 9 Z " fill="#98A0AF" transform="translate(12,1)"/>
</svg>
